<?xml version="1.0" standalone="no"?>
<!DOCTYPE svg PUBLIC "-//W3C//DTD SVG 1.1//EN" "http://www.w3.org/Graphics/SVG/1.1/DTD/svg11.dtd">
<svg version="1.1" xmlns="http://www.w3.org/2000/svg" viewBox="0 0 245.8860073512351 240.52378070918394" width="491.7720147024702" height="481.0475614183679"><!-- svg-source:excalidraw --><metadata></metadata><defs><style class="style-fonts">
      </style></defs><g stroke-linecap="round" transform="translate(10 10) rotate(0 39.6342339376979 110.26189035459197)"><path d="M19.82 0 C29.75 0, 39.69 0, 59.45 0 C72.66 0, 79.27 6.61, 79.27 19.82 C79.27 85.16, 79.27 150.51, 79.27 200.71 C79.27 213.92, 72.66 220.52, 59.45 220.52 C43.73 220.52, 28.01 220.52, 19.82 220.52 C6.61 220.52, 0 213.92, 0 200.71 C0 162.33, 0 123.96, 0 19.82 C0 6.61, 6.61 0, 19.82 0" stroke="none" stroke-width="0" fill="#2f9e44"></path><path d="M19.82 0 C35 0, 50.18 0, 59.45 0 M19.82 0 C28.21 0, 36.6 0, 59.45 0 M59.45 0 C72.66 0, 79.27 6.61, 79.27 19.82 M59.45 0 C72.66 0, 79.27 6.61, 79.27 19.82 M79.27 19.82 C79.27 66.41, 79.27 113.01, 79.27 200.71 M79.27 19.82 C79.27 82.92, 79.27 146.03, 79.27 200.71 M79.27 200.71 C79.27 213.92, 72.66 220.52, 59.45 220.52 M79.27 200.71 C79.27 213.92, 72.66 220.52, 59.45 220.52 M59.45 220.52 C46.44 220.52, 33.43 220.52, 19.82 220.52 M59.45 220.52 C49.01 220.52, 38.57 220.52, 19.82 220.52 M19.82 220.52 C6.61 220.52, 0 213.92, 0 200.71 M19.82 220.52 C6.61 220.52, 0 213.92, 0 200.71 M0 200.71 C0 150.46, 0 100.21, 0 19.82 M0 200.71 C0 138.95, 0 77.19, 0 19.82 M0 19.82 C0 6.61, 6.61 0, 19.82 0 M0 19.82 C0 6.61, 6.61 0, 19.82 0" stroke="#016748" stroke-width="2" fill="none"></path></g><g stroke-linecap="round" transform="translate(108.48308275677118 11.553695851524935) rotate(0 62.30593540269456 36.41867588721948)"><path d="M18.21 0 C46.28 0, 74.35 0, 106.4 0 C118.54 0, 124.61 6.07, 124.61 18.21 C124.61 31.81, 124.61 45.42, 124.61 54.63 C124.61 66.77, 118.54 72.84, 106.4 72.84 C83.49 72.84, 60.58 72.84, 18.21 72.84 C6.07 72.84, 0 66.77, 0 54.63 C0 42.2, 0 29.76, 0 18.21 C0 6.07, 6.07 0, 18.21 0" stroke="none" stroke-width="0" fill="#2f9e44"></path><path d="M18.21 0 C36.21 0, 54.2 0, 106.4 0 M18.21 0 C41.73 0, 65.24 0, 106.4 0 M106.4 0 C118.54 0, 124.61 6.07, 124.61 18.21 M106.4 0 C118.54 0, 124.61 6.07, 124.61 18.21 M124.61 18.21 C124.61 29.48, 124.61 40.75, 124.61 54.63 M124.61 18.21 C124.61 32.72, 124.61 47.23, 124.61 54.63 M124.61 54.63 C124.61 66.77, 118.54 72.84, 106.4 72.84 M124.61 54.63 C124.61 66.77, 118.54 72.84, 106.4 72.84 M106.4 72.84 C78.18 72.84, 49.96 72.84, 18.21 72.84 M106.4 72.84 C85.58 72.84, 64.77 72.84, 18.21 72.84 M18.21 72.84 C6.07 72.84, 0 66.77, 0 54.63 M18.21 72.84 C6.07 72.84, 0 66.77, 0 54.63 M0 54.63 C0 42.45, 0 30.27, 0 18.21 M0 54.63 C0 44.47, 0 34.31, 0 18.21 M0 18.21 C0 6.07, 6.07 0, 18.21 0 M0 18.21 C0 6.07, 6.07 0, 18.21 0" stroke="#016748" stroke-width="2" fill="none"></path></g><g stroke-linecap="round" transform="translate(105.94794358992658 102.62120831569155) rotate(0 64.96903188065426 63.698433439891005)"><path d="M31.85 0 C48.67 0, 65.49 0, 98.09 0 C119.32 0, 129.94 10.62, 129.94 31.85 C129.94 53.33, 129.94 74.81, 129.94 95.55 C129.94 116.78, 119.32 127.4, 98.09 127.4 C76.09 127.4, 54.08 127.4, 31.85 127.4 C10.62 127.4, 0 116.78, 0 95.55 C0 74.24, 0 52.93, 0 31.85 C0 10.62, 10.62 0, 31.85 0" stroke="none" stroke-width="0" fill="#2f9e44"></path><path d="M31.85 0 C48.73 0, 65.61 0, 98.09 0 M31.85 0 C57.64 0, 83.43 0, 98.09 0 M98.09 0 C119.32 0, 129.94 10.62, 129.94 31.85 M98.09 0 C119.32 0, 129.94 10.62, 129.94 31.85 M129.94 31.85 C129.94 51.38, 129.94 70.9, 129.94 95.55 M129.94 31.85 C129.94 56.94, 129.94 82.03, 129.94 95.55 M129.94 95.55 C129.94 116.78, 119.32 127.4, 98.09 127.4 M129.94 95.55 C129.94 116.78, 119.32 127.4, 98.09 127.4 M98.09 127.4 C84.17 127.4, 70.24 127.4, 31.85 127.4 M98.09 127.4 C73.53 127.4, 48.97 127.4, 31.85 127.4 M31.85 127.4 C10.62 127.4, 0 116.78, 0 95.55 M31.85 127.4 C10.62 127.4, 0 116.78, 0 95.55 M0 95.55 C0 74.41, 0 53.28, 0 31.85 M0 95.55 C0 77.89, 0 60.24, 0 31.85 M0 31.85 C0 10.62, 10.62 0, 31.85 0 M0 31.85 C0 10.62, 10.62 0, 31.85 0" stroke="#016748" stroke-width="2" fill="none"></path></g></svg>